<svg height="297mm" viewBox="0 0 744.09448819 1052.3622047" width="210mm" xmlns="http://www.w3.org/2000/svg" xmlns:xlink="http://www.w3.org/1999/xlink"><linearGradient id="a" gradientUnits="userSpaceOnUse" x1="437.6991" x2="386.08029" y1="436.4722" y2="683.95959"><stop offset="0" stop-color="#7a859c"/><stop offset="1" stop-color="#4e505d"/></linearGradient><path d="m190 322.36221h400v400h-400z" fill="none"/><path d="m389.45312 322.46094s-2.80545 14.67938-8.10156 19.15039c-36.40172 30.73051-54.22802 68.70725-67.02539 99.43164-19.43461 46.65927-13.43421 107.95529 0 148.04101 13.82924 41.26445 66.91838 85.71183 68.86524 87.33204l5.71679-230.75196 15.34961 230.37305-20.91797.57031c4.06069 11.07116 4.06641 41.6875 4.06641 41.6875l10.93555 4.16602c.22839-20.01781.2403-37.22451 6.23047-46.8711l1.82031-1.80468s21.4636-18.42484 31.66992-30.93555c8.30834-10.1842 17.11367-22.04571 22.83398-33.87891 5.30506-10.97418 10.4076-22.02911 13.25586-33.88086 4.81107-20.01908 7.46722-40.55885 6.62891-61.13086-.85114-20.88696-4.90766-41.29715-11.7832-61.13281-6.97684-20.12784-15.44018-39.72104-27.25196-57.44922-10.82366-16.24509-26.69528-28.71174-37.5625-44.92773-5.8691-8.75784-14.73047-27.98828-14.73047-27.98828z" fill="url(#a)"/></svg>